<?xml version="1.0" standalone="no"?>
<!DOCTYPE svg PUBLIC "-//W3C//DTD SVG 20010904//EN"
 "http://www.w3.org/TR/2001/REC-SVG-20010904/DTD/svg10.dtd">
<svg version="1.0" xmlns="http://www.w3.org/2000/svg"
 width="310.000000pt" height="310.000000pt" viewBox="0 0 310.000000 310.000000"
 preserveAspectRatio="xMidYMid meet">
<metadata>
Created by potrace 1.13, written by Peter Selinger 2001-2015
</metadata>
<g transform="translate(0.000000,310.000000) scale(0.100000,-0.100000)"
fill="#000000" stroke="none">
<path d="M1494 2965 c-32 -36 -67 -65 -76 -65 -9 0 -45 23 -79 52 -70 58 -67
59 -115 -34 -39 -77 -63 -81 -156 -27 -27 16 -53 29 -58 29 -5 0 -19 -32 -32
-71 -31 -98 -48 -108 -131 -80 -95 32 -95 32 -103 -51 -5 -56 -12 -77 -30 -95
-21 -21 -29 -23 -81 -16 -107 12 -98 19 -95 -72 5 -101 -3 -110 -107 -118 -40
-3 -75 -8 -78 -10 -2 -3 4 -38 15 -79 24 -96 18 -112 -49 -132 -29 -9 -58 -16
-64 -16 -6 0 -19 -6 -28 -13 -16 -11 -15 -17 13 -76 44 -91 40 -108 -42 -151
-36 -19 -70 -38 -73 -42 -4 -4 14 -34 39 -67 63 -82 61 -98 -16 -157 -35 -26
-65 -49 -68 -52 -3 -2 23 -30 58 -62 37 -36 62 -67 62 -79 0 -12 -25 -48 -55
-81 -30 -33 -55 -62 -55 -64 0 -3 31 -23 69 -46 38 -22 73 -49 76 -61 5 -14
-6 -42 -34 -91 -22 -39 -39 -74 -36 -78 3 -5 29 -16 58 -25 105 -34 116 -57
77 -155 -30 -76 -30 -77 56 -91 97 -15 110 -31 95 -115 -6 -32 -11 -69 -11
-82 0 -24 0 -24 73 -18 104 10 117 -2 124 -112 3 -45 8 -82 10 -82 2 0 36 7
75 16 107 24 114 18 143 -133 4 -18 10 -33 13 -33 4 0 40 14 80 31 67 28 75
29 95 16 12 -8 33 -43 47 -77 14 -34 30 -64 37 -67 7 -3 38 14 69 36 71 51 95
52 128 6 15 -19 38 -51 52 -71 l26 -35 63 60 c35 34 69 61 75 61 6 0 40 -27
74 -60 35 -33 65 -60 68 -60 3 0 26 31 52 70 55 84 67 86 151 30 33 -22 65
-40 70 -40 6 0 23 32 39 70 38 94 48 99 143 60 88 -35 86 -36 103 56 17 88 32
100 112 85 35 -7 71 -14 81 -17 15 -5 17 2 17 48 0 79 16 127 47 139 14 5 54
6 91 3 l65 -7 -6 64 c-4 35 -9 74 -13 86 -10 36 25 60 110 74 42 6 76 14 76
17 0 2 -11 36 -26 75 -35 98 -30 110 61 144 41 15 75 34 75 40 0 7 -16 38 -36
68 -48 75 -44 100 21 142 100 65 95 55 49 105 -23 25 -49 57 -59 71 -16 25
-16 29 -1 51 8 14 36 42 61 62 25 21 45 43 45 49 0 7 -19 25 -42 42 -63 46
-88 72 -88 92 0 9 20 44 45 75 25 32 45 62 45 67 0 5 -31 25 -70 44 -88 44
-93 60 -51 151 17 36 29 70 26 74 -3 5 -31 16 -63 25 -109 31 -116 44 -83 152
11 37 15 65 10 69 -5 3 -43 8 -84 11 -49 4 -79 11 -87 21 -9 10 -12 42 -10 99
l4 84 -54 -7 c-81 -11 -117 -9 -133 7 -8 8 -17 45 -21 87 -4 44 -12 76 -19 79
-7 2 -44 -5 -83 -17 -92 -28 -104 -22 -133 70 -12 39 -26 73 -31 76 -5 3 -38
-11 -74 -31 -87 -49 -102 -44 -150 45 -21 39 -41 70 -44 70 -3 0 -28 -18 -55
-41 -92 -76 -103 -75 -171 12 -26 32 -48 59 -48 59 -1 0 -29 -29 -62 -65z"/>
</g>
</svg>
